<?xml version="1.0" encoding="UTF-8"?>
<svg id="Capa_2" data-name="Capa 2" xmlns="http://www.w3.org/2000/svg" viewBox="0 0 126.2 170.57">
  <defs>
    <style>
      .cls-1 {
        fill: #717171;
        stroke-width: 0px;
      }
    </style>
  </defs>
  <g id="Capa_1-2" data-name="Capa 1">
    <g>
      <path class="cls-1" d="M45.43,21.8c2.97,3.89,5.27,6.9,7.87,10.3-4.39,5.1-8.65,10.06-13.79,16.04h51.89c-5.23-5.84-9.67-10.8-14.41-16.09,2.84-3.25,5.52-6.32,8.68-9.95,6.93,7.59,13.65,14.67,20.03,22.05,2.86,3.3,5.92,4.82,10.35,4.74,7.37-.13,10.09,2.59,10.11,9.9.07,33.66.06,67.32-.03,100.98-.02,7.71-3.03,10.65-10.64,10.67-35.01.1-70.02.14-105.03.12-7.25,0-10.42-3.17-10.43-10.39C-.02,126.52,0,92.86.06,59.2c.01-7.03,2.99-10.69,10.03-10.08,8.42.74,13.62-2.96,18.53-8.99,5.12-6.28,10.94-11.99,16.83-18.34ZM108.45,66.74H17.46v85.95h90.99v-85.95Z"/>
      <path class="cls-1" d="M65.51,28.14c-7.86.06-14.19-5.93-14.34-13.57C51.02,6.67,57.27.14,65.11,0c7.7-.13,14.3,6.41,14.39,14.24.08,7.55-6.25,13.83-13.98,13.89Z"/>
      <path class="cls-1" d="M54.56,130.78c5.48-8.08,10.21-15.06,14.95-22.03,1.22-1.79,2.32-3.69,3.76-5.27,2.34-2.57,5.18-2.76,7.22.14,6.61,9.38,13.16,18.83,19.38,28.47,2.54,3.94.21,7.86-4.62,7.9-20.01.16-40.02.16-60.03,0-4.43-.04-6.65-3.85-4.59-7.75,2.56-4.84,5.5-9.52,8.66-14,2.54-3.62,5.65-3.32,8.05.3,2.35,3.55,4.35,7.33,7.23,12.25Z"/>
      <circle class="cls-1" cx="42.8" cy="95.8" r="7.5"/>
    </g>
  </g>
</svg>