<?xml version="1.0" encoding="UTF-8"?>
<svg id="Capa_2" data-name="Capa 2" xmlns="http://www.w3.org/2000/svg" viewBox="0 0 203.22 233.17">
  <defs>
    <style>
      .cls-1 {
        fill: #717171;
        stroke-width: 0px;
      }
    </style>
  </defs>
  <g id="Capa_1-2" data-name="Capa 1">
    <path class="cls-1" d="M85.51,196.22c-11.41,2.89-22.6,5.72-33.8,8.55-.33-.82-.65-1.64-.98-2.47l30.28-30.93c-.61-.93-1.22-1.86-1.84-2.78-4.79,0-9.58-.04-14.36.01-5.82.06-10.83-1.34-11.03-7.73-.2-6.33,4.6-8.17,10.46-8.41,2.41-.1,4.82-.31,7.11-.46,2.85-16.2-10.96-34.77-28.18-38.41q-6.69,4.37,1.15,33.4c-18.72-7.57-35.31-15.67-42.57-33.99-3.58-9.04-1.7-17.8,5.48-24.93,8.97-8.92,20.32-11.78,32.89-9.33,14.9,2.9,25.8,11.84,32.05,24.13,6.55,12.88,10.6,26.89,15.63,40.44.95,2.57,1.38,5.3,2.06,7.96.81-.09,1.61-.18,2.42-.27-.66-6.05-.5-12.3-2.18-18.09-2.73-9.42-7-18.43-9.99-27.79-4.65-14.53-11.15-29.01-12.62-43.88-2.59-26.22,13.28-45.14,33.35-61.23,25.88,14.12,40.92,46.17,33.91,74.22-2.92,11.68-8.26,22.87-13.02,34.09-5.79,13.62-10.9,27.27-8.01,42.56,1.63-6.51,3.11-13.05,4.91-19.51,4.09-14.68,10.04-28.59,21.43-39.73,11.41-11.16,24.98-16.75,41.67-12.07,19.79,5.55,27.34,24.23,16.59,40.69-7.4,11.32-24.69,22.68-38.71,25.12,1.59-10.47,11.57-20.32,3.75-31.21-16.9-.17-31.16,16.6-32.41,37.83,3.48.19,7.57-.6,10.35.83,3.49,1.8,5.91,5.42,8.8,8.25-2.91,2.49-5.46,6.36-8.82,7.14-5.2,1.21-10.96.32-18.08.32,6.25,14.77,19.32,22.76,30.97,33.76-14.2,2.08-25.35-.95-37.37-9.64,5.16,18.24-6.72,28.51-15.12,40.51-7.96-12.16-20.24-22.15-16.17-36.94Z"/>
  </g>
</svg>