<?xml version="1.0" encoding="UTF-8"?>
<svg id="Capa_2" data-name="Capa 2" xmlns="http://www.w3.org/2000/svg" viewBox="0 0 152.24 201.72">
  <defs>
    <style>
      .cls-1 {
        fill: #717171;
        stroke-width: 0px;
      }
    </style>
  </defs>
  <g id="Capa_1-2" data-name="Capa 1">
    <g>
      <path class="cls-1" d="M54.01,201.72c-1.9-.46-3.84-.83-5.71-1.41-16.27-5.03-26.5-15.88-30.07-32.48-5.4-25.06-10.43-50.2-15.56-75.32-.99-4.87-1.89-9.78-2.5-14.71-.52-4.19.22-8.37,1.01-12.49,1.12-5.84,3.59-11.23,5.77-16.71,3.03-7.62,5.97-15.28,9.18-22.82C20.49,15.49,27.77,7.99,38.05,3.47,43.54,1.06,49.25-.04,55.26,0c14.11.1,28.22.07,42.33.02,10.43-.04,19.48,3.45,27.42,10.14,5.3,4.46,9.03,10.01,11.63,16.34,3.96,9.65,7.74,19.37,11.65,29.04,3.18,7.87,4.54,16.05,3.72,24.47-.44,4.55-1.52,9.05-2.43,13.54-2.27,11.18-4.61,22.35-6.93,33.52-2.91,14.06-5.73,28.14-8.78,42.17-1.52,6.96-4.81,13.1-9.61,18.47-6.31,7.06-14.13,11.36-23.28,13.41-.95.21-1.91.4-2.86.6h-44.1ZM76.21,17.1c-7.02,0-14.04-.05-21.06.03-1.95.02-3.95.21-5.84.68-8.5,2.11-14.36,7.34-17.64,15.43-3.89,9.6-7.71,19.24-11.55,28.86-2.61,6.55-3.43,13.26-1.96,20.24,3.16,15.01,6.23,30.05,9.33,45.07,2.57,12.46,5.12,24.92,7.72,37.37.95,4.53,3.04,8.51,6.21,11.88,5.13,5.48,11.53,8.04,18.98,8.05,10.3.02,20.6.02,30.91-.01,1.83,0,3.68-.09,5.48-.41,8.07-1.41,14.04-5.79,18.06-12.91,2.15-3.81,2.72-8.06,3.59-12.22,5.28-25.35,10.47-50.73,15.74-76.09,1.4-6.72,1.16-13.28-1.4-19.7-3.92-9.87-7.85-19.75-11.78-29.62-1.3-3.26-2.97-6.31-5.42-8.83-4.99-5.14-11.13-7.77-18.3-7.83-7.02-.06-14.04-.01-21.06-.01Z"/>
      <path class="cls-1" d="M67.62,84.4c-1.01,0-1.72,0-2.43,0-4.39,0-8.79.04-13.18-.01-2.78-.03-5.23-.85-7.2-3.01-4-4.38-2.14-11.89,3.52-13.68,1.29-.41,2.69-.62,4.05-.64,4.26-.08,8.53-.03,12.79-.03.71,0,1.42,0,2.36,0,.09-.93.23-1.68.23-2.43.02-4.53.04-9.05,0-13.58-.03-4.33,2.95-8.23,7.27-8.97,3.75-.64,8.14,1.6,9.33,5.22.47,1.41.72,2.94.75,4.42.1,4.26.03,8.53.03,12.79,0,.71,0,1.42,0,2.32.97.09,1.72.21,2.48.22,4.39.02,8.79-.02,13.18.02,2.86.03,5.38.82,7.36,3.09,3.84,4.4,2.14,11.46-3.32,13.51-1.32.49-2.81.7-4.23.73-4.33.09-8.66.03-12.99.04-.7,0-1.41.07-2.3.12-.07.97-.18,1.79-.18,2.62-.01,12.59,0,25.19-.01,37.78,0,2.92-.71,5.52-2.99,7.61-4.35,4-11.92,2.17-13.7-3.46-.45-1.41-.65-2.95-.66-4.44-.05-12.46-.03-24.92-.03-37.39,0-.83-.08-1.67-.14-2.85Z"/>
    </g>
  </g>
</svg>